<svg width="40" height="40" viewBox="0 0 40 40" fill="none" xmlns="http://www.w3.org/2000/svg">
<path d="M36.6668 30H10.0002C9.11611 30 8.26826 29.6488 7.64314 29.0237C7.01802 28.3985 6.66683 27.5507 6.66683 26.6666V11.6666C6.66683 10.7826 6.31564 9.93474 5.69052 9.30962C5.0654 8.6845 4.21755 8.33331 3.3335 8.33331M28.3335 23.3333V6.66665C28.3335 5.78259 27.9823 4.93474 27.3572 4.30962C26.7321 3.6845 25.8842 3.33331 25.0002 3.33331H23.3335C22.4494 3.33331 21.6016 3.6845 20.9765 4.30962C20.3514 4.93474 20.0002 5.78259 20.0002 6.66665V23.3333M15.0002 9.99998H33.3335C34.254 9.99998 35.0002 10.7462 35.0002 11.6666V21.6666C35.0002 22.5871 34.254 23.3333 33.3335 23.3333H15.0002C14.0797 23.3333 13.3335 22.5871 13.3335 21.6666V11.6666C13.3335 10.7462 14.0797 9.99998 15.0002 9.99998ZM33.3335 33.3333C33.3335 35.1743 31.8411 36.6666 30.0002 36.6666C28.1592 36.6666 26.6668 35.1743 26.6668 33.3333C26.6668 31.4924 28.1592 30 30.0002 30C31.8411 30 33.3335 31.4924 33.3335 33.3333ZM18.3335 33.3333C18.3335 35.1743 16.8411 36.6666 15.0002 36.6666C13.1592 36.6666 11.6668 35.1743 11.6668 33.3333C11.6668 31.4924 13.1592 30 15.0002 30C16.8411 30 18.3335 31.4924 18.3335 33.3333Z" stroke="#1C1C1C" stroke-width="3" stroke-linecap="round" stroke-linejoin="round"/>
</svg>
