<svg width="40" height="40" viewBox="0 0 40 40" fill="none" xmlns="http://www.w3.org/2000/svg">
<path d="M32.3568 24.0233C35.0002 21.38 36.6668 19.1666 36.6668 15.8333C36.6668 13.9786 36.1042 12.1676 35.0533 10.6394C34.0024 9.11122 32.5126 7.93774 30.7808 7.27397C29.049 6.61021 27.1566 6.48738 25.3535 6.92172C23.5504 7.35605 21.9215 8.32711 20.6818 9.70664M32.3568 24.0233C32.0281 24.3521 31.6378 24.6129 31.2083 24.7908C30.7788 24.9687 30.3184 25.0603 29.8535 25.0603C29.3886 25.0603 28.9282 24.9687 28.4987 24.7908C28.0692 24.6129 27.6789 24.3521 27.3502 24.0233C27.7061 24.3451 27.9928 24.736 28.193 25.1721C28.3932 25.6082 28.5027 26.0804 28.5147 26.5601C28.5268 27.0398 28.4412 27.5169 28.2631 27.9625C28.0851 28.4081 27.8183 28.8129 27.479 29.1522C27.1397 29.4915 26.735 29.7582 26.2894 29.9363C25.8438 30.1143 25.3666 30.1999 24.8869 30.1879C24.4073 30.1758 23.935 30.0664 23.4989 29.8662C23.0628 29.666 22.672 29.3792 22.3502 29.0233C22.6792 29.351 22.9403 29.7404 23.1188 30.1691C23.2972 30.5979 23.3893 31.0576 23.3899 31.5219C23.3906 31.9863 23.2996 32.4462 23.1224 32.8755C22.9451 33.3047 22.685 33.6947 22.3568 34.0233C22.0401 34.3401 21.6628 34.5898 21.2474 34.7575C20.8321 34.9253 20.3871 35.0075 19.9392 34.9994C19.4914 34.9914 19.0497 34.8931 18.6407 34.7105C18.2316 34.5279 17.8636 34.2647 17.5585 33.9366L8.3335 25C5.8335 22.5 3.3335 19.6666 3.3335 15.8333C3.33387 13.9788 3.89673 12.168 4.94776 10.6401C5.99879 9.11211 7.48854 7.9389 9.22029 7.27534C10.952 6.61179 12.8443 6.4891 14.6473 6.92348C16.4502 7.35786 18.079 8.32888 19.3185 9.70831C19.5038 9.88053 19.7475 9.97612 20.0005 9.97581C20.2535 9.9755 20.4969 9.87932 20.6818 9.70664M32.3568 24.0233C32.9817 23.3982 33.3328 22.5505 33.3328 21.6666C33.3328 20.7828 32.9817 19.9351 32.3568 19.31L29.2218 16.1733C28.8488 15.8001 28.406 15.5041 27.9185 15.3022C27.4311 15.1002 26.9086 14.9962 26.381 14.9962C25.8534 14.9962 25.3309 15.1002 24.8435 15.3022C24.356 15.5041 23.9132 15.8001 23.5402 16.1733L20.6902 19.0233C20.0651 19.6482 19.2174 19.9993 18.3335 19.9993C17.4496 19.9993 16.6019 19.6482 15.9768 19.0233C15.3519 18.3982 15.0009 17.5505 15.0009 16.6666C15.0009 15.7828 15.3519 14.9351 15.9768 14.31L20.6818 9.70664" stroke="#1C1C1C" stroke-width="3" stroke-linecap="round" stroke-linejoin="round"/>
</svg>
