<svg width="40" height="40" viewBox="0 0 40 40" fill="none" xmlns="http://www.w3.org/2000/svg">
<path d="M26.6665 6.66665H29.9998C30.8839 6.66665 31.7317 7.01784 32.3569 7.64296C32.982 8.26808 33.3332 9.11592 33.3332 9.99998V33.3333C33.3332 34.2174 32.982 35.0652 32.3569 35.6903C31.7317 36.3155 30.8839 36.6666 29.9998 36.6666H9.99984C9.11578 36.6666 8.26794 36.3155 7.64281 35.6903C7.01769 35.0652 6.6665 34.2174 6.6665 33.3333V9.99998C6.6665 9.11592 7.01769 8.26808 7.64281 7.64296C8.26794 7.01784 9.11578 6.66665 9.99984 6.66665H13.3332M19.9998 18.3333H26.6665M19.9998 26.6666H26.6665M13.3332 18.3333H13.3498M13.3332 26.6666H13.3498M14.9998 3.33331H24.9998C25.9203 3.33331 26.6665 4.07951 26.6665 4.99998V8.33331C26.6665 9.25379 25.9203 9.99998 24.9998 9.99998H14.9998C14.0794 9.99998 13.3332 9.25379 13.3332 8.33331V4.99998C13.3332 4.07951 14.0794 3.33331 14.9998 3.33331Z" stroke="#1C1C1C" stroke-width="3" stroke-linecap="round" stroke-linejoin="round"/>
</svg>
