<svg width="40" height="40" viewBox="0 0 40 40" fill="none" xmlns="http://www.w3.org/2000/svg">
<g clip-path="url(#clip0_18_2667)">
<path d="M35.0833 9.88109V0H4.91672V9.88125L0 13.7137V40H40V13.7137L35.0833 9.88109ZM35.0833 13.1887L36.6347 14.398L35.0833 15.7758V13.1887ZM7.52539 2.60867H32.4745L32.4746 18.0926L20 29.1713L7.52539 18.0926V2.60867ZM4.91672 13.1887V15.7758L3.36531 14.398L4.91672 13.1887ZM2.60867 17.2151L13.6507 27.0215L2.60867 35.9909V17.2151ZM5.02227 37.3913L15.6273 28.7769L20 32.6602L24.3727 28.7769L34.9778 37.3913H5.02227ZM37.3913 35.9909L26.3492 27.0216L37.3913 17.2151V35.9909Z" fill="#1C1C1C"/>
<path d="M20.7101 20.9441C20.7575 20.9134 21.8765 20.1859 22.6955 19.5525C24.5826 18.093 26.7486 16.1152 26.7486 13.7556C26.7486 11.3185 24.7658 9.33569 22.3287 9.33569C21.4985 9.33569 20.6929 9.5703 20.0001 9.99983C19.3071 9.5703 18.5015 9.33569 17.6714 9.33569C15.2343 9.33569 13.2515 11.3185 13.2515 13.7556C13.2515 16.115 15.4175 18.0928 17.3045 19.5525C18.1237 20.1861 19.2427 20.9135 19.2899 20.9441L20.0001 21.405L20.7101 20.9441ZM18.9004 17.4891C16.8829 15.9287 15.8601 14.6726 15.8601 13.7558C15.8602 12.757 16.6726 11.9444 17.6714 11.9444C18.1877 11.9444 18.6812 12.1665 19.0253 12.5535L20.0001 13.6499L20.9748 12.5535C21.3188 12.1665 21.8123 11.9445 22.3287 11.9445C23.3272 11.9445 24.1397 12.757 24.1397 13.7558C24.1397 14.6727 23.1168 15.9288 21.0993 17.4891C20.7584 17.7529 20.3452 18.044 19.9998 18.2806C19.6548 18.0443 19.2419 17.7533 18.9004 17.4891Z" fill="#1C1C1C"/>
</g>
<defs>
<clipPath id="clip0_18_2667">
<rect width="40" height="40" fill="white"/>
</clipPath>
</defs>
</svg>
