<svg width="170" height="30" viewBox="0 0 170 30" fill="none" xmlns="http://www.w3.org/2000/svg">
<g clip-path="url(#clip0_4_2036)">
<path d="M56.8377 8.37195V18.7934C56.8377 19.4323 56.9695 19.7118 57.2329 19.8715C57.2329 19.9114 57.2329 20.0046 57.2329 20.0046H54.9804C54.9804 20.0046 54.9804 19.9114 54.9804 19.8715C55.2702 19.7118 55.402 19.4323 55.402 18.7934V12.458H49.0793V18.7934C49.0793 19.4323 49.211 19.7118 49.4744 19.8715C49.4744 19.9114 49.4744 20.0046 49.4744 20.0046H47.222C47.222 20.0046 47.222 19.9114 47.222 19.8715C47.5118 19.7118 47.6435 19.4323 47.6435 18.7934V8.37195C47.6435 7.73309 47.5118 7.45358 47.222 7.29387C47.222 7.25394 47.222 7.14746 47.222 7.14746H49.4744C49.4744 7.14746 49.4744 7.25394 49.4744 7.29387C49.1978 7.45358 49.0793 7.73309 49.0793 8.37195V12.3249H55.402V8.37195C55.402 7.73309 55.2702 7.45358 54.9804 7.29387C54.9804 7.25394 54.9804 7.14746 54.9804 7.14746H57.2329C57.2329 7.14746 57.2329 7.25394 57.2329 7.29387C56.9695 7.45358 56.8377 7.73309 56.8377 8.37195Z" fill="#1C1C1C"/>
<path d="M71.7224 13.5359C71.7224 17.1561 68.7191 20.1109 65.1231 20.1109C61.527 20.1109 58.5238 17.1561 58.5238 13.5359C58.5238 9.90238 61.527 6.96094 65.1231 6.96094C68.7191 6.96094 71.7224 9.90238 71.7224 13.5359ZM69.9705 12.0319C68.9825 8.79767 66.2954 6.46848 63.2658 7.40016C60.223 8.33183 59.2878 11.7923 60.2625 15.0266C61.2504 18.2742 63.9376 20.6167 66.9672 19.6717C70.01 18.74 70.9584 15.2795 69.9705 12.0319Z" fill="#1C1C1C"/>
<path d="M84.1701 7.14746C84.1701 7.14746 84.1701 7.25394 84.1701 7.29387C83.5642 7.59999 83.0242 8.55829 83.0242 9.35687V20.0179H82.7475L74.0934 8.82448V17.8085C74.0934 18.5938 74.6334 19.5787 75.2525 19.8848C75.2525 19.9247 75.2525 20.0179 75.2525 20.0179H72.8025C72.8025 20.0179 72.8025 19.9247 72.8025 19.8848C73.4216 19.5787 73.9616 18.5938 73.9616 17.8085V8.65145L72.8025 7.14746H74.6334L82.8661 17.6887V9.35687C82.8661 8.5716 82.326 7.6133 81.7201 7.29387C81.7201 7.25394 81.7201 7.14746 81.7201 7.14746H84.1701Z" fill="#1C1C1C"/>
<path d="M98.2776 13.5359C98.2776 17.1561 95.2744 20.1109 91.6783 20.1109C88.0823 20.1109 85.079 17.1561 85.079 13.5359C85.079 9.90238 88.0823 6.96094 91.6783 6.96094C95.2875 6.96094 98.2776 9.90238 98.2776 13.5359ZM96.5389 12.0319C95.551 8.79767 92.8638 6.46848 89.8342 7.40016C86.7914 8.33183 85.8562 11.7923 86.831 15.0266C87.8189 18.2742 90.506 20.6167 93.5356 19.6717C96.5784 18.74 97.5136 15.2795 96.5389 12.0319Z" fill="#1C1C1C"/>
<path d="M109.263 19.8715V20.0046H106.458V19.8715C106.932 19.3924 106.55 18.7269 105.839 17.4625L103.902 14.0419C103.626 14.0552 103.362 14.0818 103.086 14.0818H101.399V18.8067C101.399 19.4456 101.531 19.7251 101.795 19.8848C101.795 19.9247 101.795 20.0179 101.795 20.0179H99.5554C99.5554 20.0179 99.5554 19.9247 99.5554 19.8848C99.832 19.7251 99.9505 19.4456 99.9505 18.8067V8.37195C99.9505 7.70647 99.8188 7.45358 99.5554 7.29387C99.5554 7.25394 99.5554 7.14746 99.5554 7.14746H103.086C105.904 7.14746 108.447 8.21223 108.447 10.6213C108.447 12.3515 107.077 13.3897 105.259 13.8156L106.892 16.7171C107.972 18.6071 108.552 19.2326 109.263 19.8715ZM107.011 10.6213C107.011 9.18384 106.537 7.29387 103.086 7.29387H101.399V13.9221H103.086C106.523 13.9221 107.011 12.0321 107.011 10.6213Z" fill="#1C1C1C"/>
<path d="M119.05 8.69132L118.51 10.6079H118.379C117.338 8.13231 116.007 7.20064 114.572 7.20064C112.767 7.20064 111.74 8.22548 111.621 9.33018C111.279 13.0037 119.077 11.7925 119.077 16.3843C119.077 18.5671 117.127 20.111 114.545 20.111C112.385 20.111 111.042 19.379 109.619 18.2876L110.159 16.198H110.291C111.213 18.0746 112.912 19.7383 115.296 19.7383C116.837 19.7383 118.128 18.7268 118.273 17.5689C118.747 13.6558 110.923 14.9069 110.923 10.2885C110.923 8.7978 112.109 6.94775 115.033 6.94775C116.442 6.96106 117.97 7.8395 119.05 8.69132Z" fill="#1C1C1C"/>
<path d="M136.991 16.3712C136.003 18.4342 134.264 20.1246 131.05 20.1246C127.467 20.1246 124.359 17.1831 124.359 13.5496C124.359 9.91605 127.612 6.97461 131.208 6.97461C133.171 6.97461 134.356 7.49369 135.898 8.51853L135.358 10.6081H135.226C133.895 8.4786 131.735 6.89475 129.351 7.41383C126.242 8.09262 125.11 11.806 126.097 15.0536C127.085 18.2878 129.693 19.9782 132.894 19.4857C134.528 19.2461 135.924 18.168 136.859 16.3313L136.991 16.3712Z" fill="#1C1C1C"/>
<path d="M146.251 17.7819L145.856 20.0046H138.269C138.269 20.0046 138.269 19.9114 138.269 19.8715C138.558 19.7118 138.69 19.4323 138.69 18.7934V8.37195C138.69 7.70647 138.558 7.45358 138.269 7.29387C138.269 7.25394 138.269 7.14746 138.269 7.14746H140.521C140.521 7.14746 140.521 7.25394 140.521 7.29387C140.244 7.45358 140.126 7.71978 140.126 8.37195V19.8715H141.786C143.801 19.8715 145.289 18.82 146.146 17.702L146.251 17.7819Z" fill="#1C1C1C"/>
<path d="M157.684 7.14746C157.684 7.14746 157.684 7.25394 157.684 7.29387C157.105 7.59999 156.92 8.55829 156.92 9.35687V15.6923C156.92 18.2477 155.116 20.1244 152.56 20.1244C149.847 20.1244 147.581 18.5938 147.581 15.253V8.37195C147.581 7.70647 147.45 7.45358 147.16 7.29387C147.16 7.25394 147.16 7.14746 147.16 7.14746H149.412C149.412 7.14746 149.412 7.25394 149.412 7.29387C149.136 7.45358 149.017 7.71978 149.017 8.37195V15.2397C149.017 18.2743 150.558 20.1111 153.193 19.8848C155.432 19.6985 156.789 17.742 156.789 15.679V9.55651C156.789 8.54498 156.315 7.42696 155.419 7.29387C155.419 7.25394 155.419 7.14746 155.419 7.14746H157.684Z" fill="#1C1C1C"/>
<path d="M169.5 16.5574C169.5 19.1528 166.484 20.0046 164.139 20.0046H159.133C159.133 20.0046 159.133 19.9114 159.133 19.8715C159.41 19.7118 159.529 19.4323 159.529 18.7934V8.37195C159.529 7.73309 159.397 7.45358 159.133 7.29387C159.133 7.25394 159.133 7.14746 159.133 7.14746H163.349C165.693 7.14746 168.71 7.62661 168.71 10.222C168.71 12.1918 166.931 12.9239 165.035 13.1634C167.195 13.3498 169.5 14.3081 169.5 16.5574ZM160.978 13.0969H163.362C166.339 13.0969 167.287 11.8325 167.287 10.2087C167.287 8.5716 166.339 7.29387 163.362 7.29387H160.978V13.0969ZM168.077 16.5574C168.077 14.9469 167.116 13.2566 164.126 13.2566H160.964V19.8848H164.126C167.116 19.8715 168.077 18.1812 168.077 16.5574Z" fill="#1C1C1C"/>
<path d="M49.0661 26.8325L50.2911 29.9603H50.0277L49.6193 28.9354H48.2494L47.8543 29.9603H47.5908L48.8158 26.8325H49.0661ZM48.3548 28.6959H49.5403L48.9476 27.1653L48.3548 28.6959Z" fill="#1C1C1C"/>
<path d="M51.8059 26.8325H52.0694V29.7207H53.7423V29.9603H51.8059V26.8325Z" fill="#1C1C1C"/>
<path d="M55.3493 26.8325H55.6127V29.7207H57.2856V29.9603H55.3493V26.8325Z" fill="#1C1C1C"/>
<path d="M60.7762 26.8325H63.2921V27.0721H62.1593V29.9603H61.8959V27.0721H60.7631V26.8325H60.7762Z" fill="#1C1C1C"/>
<path d="M67.3229 26.8325V29.9603H67.0594V28.4696H65.0968V29.9603H64.8333V26.8325H65.0968V28.23H67.0594V26.8325H67.3229Z" fill="#1C1C1C"/>
<path d="M70.313 26.8325L71.538 29.9603H71.2745L70.8662 28.9354H69.4963L69.1011 29.9603H68.8377L70.0627 26.8325H70.313ZM69.5885 28.6959H70.774L70.1812 27.1653L69.5885 28.6959Z" fill="#1C1C1C"/>
<path d="M72.5654 26.8325H75.0813V27.0721H73.9485V29.9603H73.6851V27.0721H72.5522V26.8325H72.5654Z" fill="#1C1C1C"/>
<path d="M81.2459 26.8325V29.9603H80.9825V28.4696H79.0198V29.9603H78.7564V26.8325H79.0198V28.23H80.9825V26.8325H81.2459Z" fill="#1C1C1C"/>
<path d="M84.2097 30.0002C83.4194 30.0002 82.8398 29.3481 82.8398 28.3898C82.8398 27.4315 83.4194 26.7793 84.2097 26.7793C85 26.7793 85.5796 27.4315 85.5796 28.3898C85.5796 29.3481 85 30.0002 84.2097 30.0002ZM84.2097 27.0322C83.5511 27.0322 83.1032 27.5912 83.1032 28.4031C83.1032 29.2017 83.5511 29.774 84.2097 29.774C84.8683 29.774 85.3162 29.215 85.3162 28.4031C85.3162 27.5912 84.8683 27.0322 84.2097 27.0322Z" fill="#1C1C1C"/>
<path d="M89.4786 29.9603H89.3073L87.4237 27.2451V29.9603H87.1734V26.8325H87.4237L89.2415 29.4412V26.8325H89.4917V29.9603H89.4786Z" fill="#1C1C1C"/>
<path d="M92.4555 30.0002C91.6652 30.0002 91.0856 29.3481 91.0856 28.3898C91.0856 27.4315 91.6652 26.7793 92.4555 26.7793C93.2458 26.7793 93.8254 27.4315 93.8254 28.3898C93.8254 29.3481 93.2458 30.0002 92.4555 30.0002ZM92.4555 27.0322C91.7969 27.0322 91.349 27.5912 91.349 28.4031C91.349 29.2017 91.7969 29.774 92.4555 29.774C93.1141 29.774 93.562 29.215 93.562 28.4031C93.562 27.5912 93.1141 27.0322 92.4555 27.0322Z" fill="#1C1C1C"/>
<path d="M95.6695 28.5761V29.9603H95.4061V26.8325H96.4994C97.1053 26.8325 97.4741 27.1386 97.4741 27.711C97.4741 28.2167 97.1712 28.5095 96.6838 28.5761L97.619 29.9603H97.3161L96.394 28.5761H95.6695ZM95.6695 28.3498H96.4994C96.9736 28.3498 97.2239 28.1102 97.2239 27.711C97.2239 27.2984 96.9604 27.0721 96.4994 27.0721H95.6695V28.3498Z" fill="#1C1C1C"/>
<path d="M99.1997 29.1883C99.3314 29.561 99.6476 29.7607 100.082 29.7607C100.53 29.7607 100.859 29.5344 100.859 29.1351C100.859 28.8556 100.715 28.6693 100.319 28.5495L99.7266 28.3765C99.2919 28.2567 99.0153 28.057 99.0153 27.6178C99.0153 27.0854 99.4632 26.7793 99.99 26.7793C100.596 26.7793 100.952 27.0987 101.083 27.5646H100.82C100.701 27.2318 100.438 27.0189 99.99 27.0189C99.5817 27.0189 99.2656 27.2318 99.2656 27.6178C99.2656 27.9505 99.4763 28.0703 99.8583 28.1768L100.372 28.3232C100.886 28.4696 101.097 28.7225 101.097 29.1351C101.097 29.6808 100.649 30.0002 100.069 30.0002C99.5027 30.0002 99.0416 29.7074 98.9231 29.1883H99.1997Z" fill="#1C1C1C"/>
<path d="M105.983 26.7793C106.589 26.7793 106.998 27.1387 107.129 27.671H106.879C106.747 27.2718 106.444 27.0189 105.983 27.0189C105.338 27.0189 104.89 27.5379 104.89 28.3898C104.89 29.2283 105.351 29.7607 105.983 29.7607C106.431 29.7607 106.747 29.5078 106.879 29.1085H107.129C106.998 29.6542 106.576 30.0002 105.983 30.0002C105.219 30.0002 104.627 29.3747 104.627 28.3898C104.627 27.4049 105.219 26.7793 105.983 26.7793Z" fill="#1C1C1C"/>
<path d="M108.736 26.8325H109V29.7207H110.673V29.9603H108.736V26.8325Z" fill="#1C1C1C"/>
<path d="M112.069 28.7225V26.8325H112.332V28.6959C112.332 29.4279 112.728 29.774 113.255 29.774C113.781 29.774 114.19 29.4279 114.19 28.6959V26.8325H114.453V28.7225C114.453 29.5876 113.926 30.0002 113.268 30.0002C112.609 30.0002 112.069 29.5876 112.069 28.7225Z" fill="#1C1C1C"/>
<path d="M118.234 29.0952C118.234 29.6409 117.852 29.9603 117.219 29.9603H116.179V26.8325H117.127C117.759 26.8325 118.115 27.1253 118.115 27.6444C118.115 28.057 117.878 28.2567 117.601 28.3365C117.997 28.4031 118.234 28.7225 118.234 29.0952ZM117.127 28.23C117.601 28.23 117.865 28.0304 117.865 27.6444C117.865 27.2584 117.601 27.0588 117.127 27.0588H116.429V28.23H117.127ZM116.429 29.7207H117.233C117.72 29.7207 117.97 29.4678 117.97 29.0952C117.97 28.7092 117.72 28.4696 117.233 28.4696H116.429V29.7207Z" fill="#1C1C1C"/>
<path d="M15.3188 29.9468C23.503 29.9468 30.1376 23.243 30.1376 14.9734C30.1376 6.70381 23.503 0 15.3188 0C7.1346 0 0.5 6.70381 0.5 14.9734C0.5 23.243 7.1346 29.9468 15.3188 29.9468Z" fill="#C7F3FE"/>
<path d="M25.0004 14.0416L20.2847 25.5677C20.2057 25.7408 20.153 25.9271 20.1135 26.0868C19.6129 28.1631 21.299 29.7736 23.4724 29.0948L35.2484 25.3814C36.4998 24.9954 37.4087 23.9972 37.7906 22.9191C38.1331 21.9475 38.0409 20.9094 37.3691 20.164L30.3088 12.3646C28.9125 10.794 25.9488 11.7257 25.0004 14.0416Z" fill="#89B97C"/>
<path d="M30.2166 14.9733C30.2166 13.9352 30.1112 12.9369 29.9137 11.952C28.3857 10.9937 25.9225 11.952 25.0663 14.0283L20.3506 25.5545C20.2716 25.7275 20.2189 25.9139 20.1794 26.0736C19.9027 27.2315 20.2979 28.2431 21.0751 28.7888C26.4493 26.5527 30.2166 21.2156 30.2166 14.9733Z" fill="#385D31"/>
</g>
<defs>
<clipPath id="clip0_4_2036">
<rect width="169" height="30" fill="white" transform="translate(0.5)"/>
</clipPath>
</defs>
</svg>
