<svg width="242" height="43" viewBox="0 0 242 43" fill="none" xmlns="http://www.w3.org/2000/svg">
<g clip-path="url(#clip0_632_20113)">
<path d="M80.6729 11.9997V26.9372C80.6729 27.8529 80.8616 28.2535 81.2388 28.4824C81.2388 28.5397 81.2388 28.6732 81.2388 28.6732H78.0134C78.0134 28.6732 78.0134 28.5397 78.0134 28.4824C78.4284 28.2535 78.617 27.8529 78.617 26.9372V17.8564H69.5632V26.9372C69.5632 27.8529 69.7518 28.2535 70.1291 28.4824C70.1291 28.5397 70.1291 28.6732 70.1291 28.6732H66.9037C66.9037 28.6732 66.9037 28.5397 66.9037 28.4824C67.3186 28.2535 67.5072 27.8529 67.5072 26.9372V11.9997C67.5072 11.084 67.3186 10.6834 66.9037 10.4545C66.9037 10.3972 66.9037 10.2446 66.9037 10.2446H70.1291C70.1291 10.2446 70.1291 10.3972 70.1291 10.4545C69.733 10.6834 69.5632 11.084 69.5632 11.9997V17.6657H78.617V11.9997C78.617 11.084 78.4284 10.6834 78.0134 10.4545C78.0134 10.3972 78.0134 10.2446 78.0134 10.2446H81.2388C81.2388 10.2446 81.2388 10.3972 81.2388 10.4545C80.8616 10.6834 80.6729 11.084 80.6729 11.9997Z" fill="#1C1C1C"/>
<path d="M101.987 19.4017C101.987 24.5907 97.6865 28.8258 92.5372 28.8258C87.3878 28.8258 83.0873 24.5907 83.0873 19.4017C83.0873 14.1936 87.3878 9.97754 92.5372 9.97754C97.6865 9.97754 101.987 14.1936 101.987 19.4017ZM99.4784 17.246C98.0637 12.6102 94.2159 9.27168 89.8776 10.6071C85.5205 11.9425 84.1813 16.9026 85.5771 21.5383C86.9917 26.1932 90.8396 29.5507 95.1778 28.1963C99.535 26.8609 100.893 21.9008 99.4784 17.246Z" fill="#1C1C1C"/>
<path d="M119.812 10.2446C119.812 10.2446 119.812 10.3972 119.812 10.4545C118.944 10.8933 118.171 12.2668 118.171 13.4114V28.6923H117.775L105.382 12.6484V25.5255C105.382 26.651 106.156 28.0627 107.042 28.5015C107.042 28.5587 107.042 28.6923 107.042 28.6923H103.534C103.534 28.6923 103.534 28.5587 103.534 28.5015C104.42 28.0627 105.194 26.651 105.194 25.5255V12.4004L103.534 10.2446H106.156L117.944 25.3538V13.4114C117.944 12.2859 117.171 10.9123 116.303 10.4545C116.303 10.3972 116.303 10.2446 116.303 10.2446H119.812Z" fill="#1C1C1C"/>
<path d="M140.013 19.4017C140.013 24.5907 135.712 28.8258 130.563 28.8258C125.414 28.8258 121.113 24.5907 121.113 19.4017C121.113 14.1936 125.414 9.97754 130.563 9.97754C135.731 9.97754 140.013 14.1936 140.013 19.4017ZM137.523 17.246C136.108 12.6102 132.261 9.27168 127.922 10.6071C123.565 11.9425 122.226 16.9026 123.622 21.5383C125.036 26.1932 128.884 29.5507 133.223 28.1963C137.58 26.8609 138.919 21.9008 137.523 17.246Z" fill="#1C1C1C"/>
<path d="M155.744 28.4824V28.6732H151.726V28.4824C152.405 27.7957 151.858 26.8418 150.84 25.0295L148.067 20.1266C147.671 20.1457 147.294 20.1838 146.898 20.1838H144.483V26.9563C144.483 27.872 144.672 28.2726 145.049 28.5015C145.049 28.5587 145.049 28.6923 145.049 28.6923H141.843C141.843 28.6923 141.843 28.5587 141.843 28.5015C142.239 28.2726 142.408 27.872 142.408 26.9563V11.9997C142.408 11.0459 142.22 10.6834 141.843 10.4545C141.843 10.3972 141.843 10.2446 141.843 10.2446H146.898C150.934 10.2446 154.574 11.7708 154.574 15.2238C154.574 17.7038 152.613 19.1918 150.01 19.8023L152.349 23.9611C153.895 26.6701 154.725 27.5667 155.744 28.4824ZM152.518 15.2238C152.518 13.1634 151.839 10.4545 146.898 10.4545H144.483V19.9549H146.898C151.821 19.9549 152.518 17.246 152.518 15.2238Z" fill="#1C1C1C"/>
<path d="M169.758 12.4576L168.985 15.2047H168.796C167.306 11.6564 165.401 10.321 163.345 10.321C160.761 10.321 159.29 11.7899 159.12 13.3733C158.63 18.6386 169.796 16.9026 169.796 23.4842C169.796 26.6129 167.005 28.8258 163.308 28.8258C160.214 28.8258 158.29 27.7766 156.253 26.2123L157.026 23.2171H157.215C158.535 25.907 160.969 28.2917 164.383 28.2917C166.59 28.2917 168.438 26.8418 168.646 25.1821C169.325 19.5734 158.12 21.3667 158.12 14.7469C158.12 12.6102 159.818 9.9585 164.005 9.9585C166.024 9.97757 168.212 11.2367 169.758 12.4576Z" fill="#1C1C1C"/>
<path d="M195.448 23.4651C194.034 26.422 191.544 28.8449 186.942 28.8449C181.811 28.8449 177.36 24.6288 177.36 19.4207C177.36 14.2126 182.019 9.99658 187.168 9.99658C189.978 9.99658 191.676 10.7406 193.883 12.2095L193.11 15.2047H192.921C191.016 12.1523 187.923 9.88212 184.508 10.6261C180.057 11.5991 178.435 16.9216 179.85 21.5764C181.264 26.2122 184.999 28.635 189.582 27.9291C191.921 27.5858 193.921 26.0405 195.26 23.4079L195.448 23.4651Z" fill="#1C1C1C"/>
<path d="M208.708 25.4873L208.143 28.6732H197.278C197.278 28.6732 197.278 28.5397 197.278 28.4824C197.693 28.2535 197.882 27.8529 197.882 26.9372V11.9997C197.882 11.0459 197.693 10.6834 197.278 10.4545C197.278 10.3972 197.278 10.2446 197.278 10.2446H200.503C200.503 10.2446 200.503 10.3972 200.503 10.4545C200.107 10.6834 199.938 11.0649 199.938 11.9997V28.4824H202.314C205.2 28.4824 207.332 26.9753 208.558 25.3728L208.708 25.4873Z" fill="#1C1C1C"/>
<path d="M225.081 10.2446C225.081 10.2446 225.081 10.3972 225.081 10.4545C224.251 10.8933 223.987 12.2668 223.987 13.4114V22.4922C223.987 26.155 221.403 28.8449 217.743 28.8449C213.858 28.8449 210.614 26.651 210.614 21.8626V11.9997C210.614 11.0459 210.425 10.6834 210.01 10.4545C210.01 10.3972 210.01 10.2446 210.01 10.2446H213.235C213.235 10.2446 213.235 10.3972 213.235 10.4545C212.839 10.6834 212.67 11.0649 212.67 11.9997V21.8436C212.67 26.1932 214.876 28.8258 218.649 28.5015C221.855 28.2344 223.798 25.4301 223.798 22.4731V13.6976C223.798 12.2477 223.119 10.6452 221.836 10.4545C221.836 10.3972 221.836 10.2446 221.836 10.2446H225.081Z" fill="#1C1C1C"/>
<path d="M242 23.7322C242 27.4523 237.681 28.6732 234.323 28.6732H227.156C227.156 28.6732 227.156 28.5397 227.156 28.4824C227.552 28.2535 227.721 27.8529 227.721 26.9372V11.9997C227.721 11.084 227.533 10.6834 227.156 10.4545C227.156 10.3972 227.156 10.2446 227.156 10.2446H233.191C236.549 10.2446 240.868 10.9314 240.868 14.6515C240.868 17.4749 238.322 18.5241 235.606 18.8675C238.699 19.1346 242 20.5082 242 23.7322ZM229.796 18.7721H233.21C237.473 18.7721 238.831 16.9598 238.831 14.6324C238.831 12.2859 237.473 10.4545 233.21 10.4545H229.796V18.7721ZM239.963 23.7322C239.963 21.4239 238.586 19.0011 234.304 19.0011H229.777V28.5015H234.304C238.586 28.4824 239.963 26.0596 239.963 23.7322Z" fill="#1C1C1C"/>
<path d="M69.5443 38.4595L71.2985 42.9426H70.9213L70.3365 41.4737H68.3749L67.809 42.9426H67.4318L69.186 38.4595H69.5443ZM68.5258 41.1303H70.2234L69.3746 38.9364L68.5258 41.1303Z" fill="#1C1C1C"/>
<path d="M73.4677 38.4595H73.8449V42.5992H76.2404V42.9426H73.4677V38.4595Z" fill="#1C1C1C"/>
<path d="M78.5415 38.4595H78.9188V42.5992H81.3143V42.9426H78.5415V38.4595Z" fill="#1C1C1C"/>
<path d="M86.3127 38.4595H89.9154V38.8029H88.2932V42.9426H87.916V38.8029H86.2938V38.4595H86.3127Z" fill="#1C1C1C"/>
<path d="M95.6871 38.4595V42.9426H95.3099V40.806H92.4994V42.9426H92.1222V38.4595H92.4994V40.4626H95.3099V38.4595H95.6871Z" fill="#1C1C1C"/>
<path d="M99.9688 38.4595L101.723 42.9426H101.346L100.761 41.4737H98.7994L98.2335 42.9426H97.8563L99.6104 38.4595H99.9688ZM98.9314 41.1303H100.629L99.7802 38.9364L98.9314 41.1303Z" fill="#1C1C1C"/>
<path d="M103.194 38.4595H106.797V38.8029H105.175V42.9426H104.798V38.8029H103.175V38.4595H103.194Z" fill="#1C1C1C"/>
<path d="M115.624 38.4595V42.9426H115.247V40.806H112.437V42.9426H112.059V38.4595H112.437V40.4626H115.247V38.4595H115.624Z" fill="#1C1C1C"/>
<path d="M119.868 43C118.737 43 117.907 42.0652 117.907 40.6916C117.907 39.3181 118.737 38.3833 119.868 38.3833C121 38.3833 121.83 39.3181 121.83 40.6916C121.83 42.0652 121 43 119.868 43ZM119.868 38.7458C118.925 38.7458 118.284 39.547 118.284 40.7107C118.284 41.8554 118.925 42.6757 119.868 42.6757C120.811 42.6757 121.453 41.8744 121.453 40.7107C121.453 39.547 120.811 38.7458 119.868 38.7458Z" fill="#1C1C1C"/>
<path d="M127.413 42.9426H127.168L124.471 39.0509V42.9426H124.112V38.4595H124.471L127.074 42.1986V38.4595H127.432V42.9426H127.413Z" fill="#1C1C1C"/>
<path d="M131.676 43C130.544 43 129.714 42.0652 129.714 40.6916C129.714 39.3181 130.544 38.3833 131.676 38.3833C132.808 38.3833 133.638 39.3181 133.638 40.6916C133.638 42.0652 132.808 43 131.676 43ZM131.676 38.7458C130.733 38.7458 130.091 39.547 130.091 40.7107C130.091 41.8554 130.733 42.6757 131.676 42.6757C132.619 42.6757 133.26 41.8744 133.26 40.7107C133.26 39.547 132.619 38.7458 131.676 38.7458Z" fill="#1C1C1C"/>
<path d="M136.278 40.9586V42.9426H135.901V38.4595H137.467C138.334 38.4595 138.862 38.8982 138.862 39.7186C138.862 40.4435 138.429 40.8632 137.731 40.9586L139.07 42.9426H138.636L137.316 40.9586H136.278ZM136.278 40.6343H137.467C138.146 40.6343 138.504 40.2909 138.504 39.7186C138.504 39.1272 138.127 38.8029 137.467 38.8029H136.278V40.6343Z" fill="#1C1C1C"/>
<path d="M141.333 41.8363C141.522 42.3704 141.975 42.6566 142.597 42.6566C143.238 42.6566 143.71 42.3323 143.71 41.76C143.71 41.3593 143.502 41.0923 142.937 40.9206L142.088 40.6726C141.465 40.5009 141.069 40.2147 141.069 39.5852C141.069 38.8221 141.711 38.3833 142.465 38.3833C143.333 38.3833 143.842 38.8412 144.031 39.5089H143.653C143.484 39.0319 143.106 38.7267 142.465 38.7267C141.88 38.7267 141.428 39.0319 141.428 39.5852C141.428 40.0621 141.729 40.2338 142.276 40.3864L143.012 40.5963C143.748 40.8061 144.049 41.1686 144.049 41.76C144.049 42.5421 143.408 43 142.578 43C141.767 43 141.107 42.5803 140.937 41.8363H141.333Z" fill="#1C1C1C"/>
<path d="M151.047 38.3833C151.915 38.3833 152.5 38.8984 152.688 39.6615H152.33C152.141 39.0892 151.707 38.7267 151.047 38.7267C150.123 38.7267 149.482 39.4707 149.482 40.6916C149.482 41.8935 150.142 42.6566 151.047 42.6566C151.689 42.6566 152.141 42.2941 152.33 41.7218H152.688C152.5 42.504 151.896 43 151.047 43C149.953 43 149.104 42.1034 149.104 40.6916C149.104 39.2799 149.953 38.3833 151.047 38.3833Z" fill="#1C1C1C"/>
<path d="M154.989 38.4595H155.367V42.5992H157.762V42.9426H154.989V38.4595Z" fill="#1C1C1C"/>
<path d="M159.761 41.1684V38.4595H160.139V41.1303C160.139 42.1795 160.705 42.6755 161.459 42.6755C162.214 42.6755 162.798 42.1795 162.798 41.1303V38.4595H163.176V41.1684C163.176 42.4085 162.421 42.9998 161.478 42.9998C160.535 42.9998 159.761 42.4085 159.761 41.1684Z" fill="#1C1C1C"/>
<path d="M168.589 41.7026C168.589 42.4848 168.042 42.9426 167.137 42.9426H165.646V38.4595H167.005C167.91 38.4595 168.419 38.8792 168.419 39.6232C168.419 40.2146 168.08 40.5007 167.684 40.6152C168.249 40.7106 168.589 41.1684 168.589 41.7026ZM167.005 40.4626C167.684 40.4626 168.061 40.1764 168.061 39.6232C168.061 39.0699 167.684 38.7838 167.005 38.7838H166.005V40.4626H167.005ZM166.005 42.5992H167.155C167.853 42.5992 168.212 42.2368 168.212 41.7026C168.212 41.1494 167.853 40.806 167.155 40.806H166.005V42.5992Z" fill="#1C1C1C"/>
<path d="M21.2198 42.9237C32.9392 42.9237 42.4396 33.3149 42.4396 21.4618C42.4396 9.6088 32.9392 0 21.2198 0C9.50043 0 0 9.6088 0 21.4618C0 33.3149 9.50043 42.9237 21.2198 42.9237Z" fill="#C7F3FE"/>
<path d="M35.0834 20.1265L28.3308 36.6473C28.2176 36.8953 28.1422 37.1624 28.0856 37.3913C27.3688 40.3674 29.7832 42.6757 32.8954 41.7028L49.7581 36.3802C51.55 35.827 52.8514 34.3962 53.3984 32.851C53.8889 31.4583 53.7568 29.9703 52.7949 28.902L42.6848 17.7227C40.6854 15.4716 36.4415 16.807 35.0834 20.1265Z" fill="#89B97C"/>
<path d="M42.5528 21.4617C42.5528 19.9737 42.4019 18.5429 42.1189 17.1312C39.9309 15.7577 36.4037 17.1312 35.1777 20.1073L28.4251 36.6281C28.3119 36.8761 28.2365 37.1432 28.1799 37.3721C27.7838 39.0318 28.3497 40.4817 29.4625 41.2639C37.1582 38.0589 42.5528 30.4089 42.5528 21.4617Z" fill="#385D31"/>
</g>
<defs>
<clipPath id="clip0_632_20113">
<rect width="242" height="43" fill="white"/>
</clipPath>
</defs>
</svg>
