<svg width="242" height="43" viewBox="0 0 242 43" fill="none" xmlns="http://www.w3.org/2000/svg">
<g clip-path="url(#clip0_18_2245)">
<path d="M80.6731 11.9992V26.9367C80.6731 27.8524 80.8617 28.253 81.239 28.4819C81.239 28.5392 81.239 28.6727 81.239 28.6727H78.0135C78.0135 28.6727 78.0135 28.5392 78.0135 28.4819C78.4285 28.253 78.6171 27.8524 78.6171 26.9367V17.8559H69.5634V26.9367C69.5634 27.8524 69.752 28.253 70.1292 28.4819C70.1292 28.5392 70.1292 28.6727 70.1292 28.6727H66.9038C66.9038 28.6727 66.9038 28.5392 66.9038 28.4819C67.3188 28.253 67.5074 27.8524 67.5074 26.9367V11.9992C67.5074 11.0835 67.3188 10.6829 66.9038 10.454C66.9038 10.3968 66.9038 10.2441 66.9038 10.2441H70.1292C70.1292 10.2441 70.1292 10.3968 70.1292 10.454C69.7331 10.6829 69.5634 11.0835 69.5634 11.9992V17.6652H78.6171V11.9992C78.6171 11.0835 78.4285 10.6829 78.0135 10.454C78.0135 10.3968 78.0135 10.2441 78.0135 10.2441H81.239C81.239 10.2441 81.239 10.3968 81.239 10.454C80.8617 10.6829 80.6731 11.0835 80.6731 11.9992Z" fill="white"/>
<path d="M101.987 19.4017C101.987 24.5907 97.6866 28.8258 92.5373 28.8258C87.3879 28.8258 83.0874 24.5907 83.0874 19.4017C83.0874 14.1936 87.3879 9.97754 92.5373 9.97754C97.6866 9.97754 101.987 14.1936 101.987 19.4017ZM99.4785 17.246C98.0639 12.6102 94.216 9.27168 89.8777 10.6071C85.5206 11.9425 84.1814 16.9026 85.5772 21.5383C86.9918 26.1932 90.8397 29.5507 95.178 28.1963C99.5351 26.8609 100.893 21.9008 99.4785 17.246Z" fill="white"/>
<path d="M119.812 10.2441C119.812 10.2441 119.812 10.3968 119.812 10.454C118.944 10.8928 118.171 12.2663 118.171 13.411V28.6918H117.775L105.382 12.6479V25.525C105.382 26.6505 106.156 28.0622 107.042 28.501C107.042 28.5582 107.042 28.6918 107.042 28.6918H103.534C103.534 28.6918 103.534 28.5582 103.534 28.501C104.42 28.0622 105.194 26.6505 105.194 25.525V12.3999L103.534 10.2441H106.156L117.944 25.3533V13.411C117.944 12.2854 117.171 10.9118 116.303 10.454C116.303 10.3968 116.303 10.2441 116.303 10.2441H119.812Z" fill="white"/>
<path d="M140.013 19.4017C140.013 24.5907 135.713 28.8258 130.563 28.8258C125.414 28.8258 121.113 24.5907 121.113 19.4017C121.113 14.1936 125.414 9.97754 130.563 9.97754C135.731 9.97754 140.013 14.1936 140.013 19.4017ZM137.523 17.246C136.109 12.6102 132.261 9.27168 127.922 10.6071C123.565 11.9425 122.226 16.9026 123.622 21.5383C125.037 26.1932 128.884 29.5507 133.223 28.1963C137.58 26.8609 138.919 21.9008 137.523 17.246Z" fill="white"/>
<path d="M155.744 28.4819V28.6727H151.726V28.4819C152.406 27.7952 151.859 26.8413 150.84 25.029L148.067 20.1261C147.671 20.1452 147.294 20.1834 146.898 20.1834H144.483V26.9558C144.483 27.8715 144.672 28.2721 145.049 28.501C145.049 28.5582 145.049 28.6918 145.049 28.6918H141.843C141.843 28.6918 141.843 28.5582 141.843 28.501C142.239 28.2721 142.409 27.8715 142.409 26.9558V11.9992C142.409 11.0454 142.22 10.6829 141.843 10.454C141.843 10.3968 141.843 10.2441 141.843 10.2441H146.898C150.934 10.2441 154.575 11.7703 154.575 15.2233C154.575 17.7033 152.613 19.1913 150.01 19.8018L152.349 23.9606C153.896 26.6696 154.726 27.5662 155.744 28.4819ZM152.519 15.2233C152.519 13.163 151.84 10.454 146.898 10.454H144.483V19.9544H146.898C151.821 19.9544 152.519 17.2455 152.519 15.2233Z" fill="white"/>
<path d="M169.759 12.4571L168.985 15.2042H168.797C167.307 11.6559 165.402 10.3205 163.346 10.3205C160.761 10.3205 159.29 11.7894 159.12 13.3728C158.63 18.6381 169.796 16.9021 169.796 23.4837C169.796 26.6124 167.005 28.8254 163.308 28.8254C160.214 28.8254 158.291 27.7761 156.253 26.2118L157.027 23.2167H157.215C158.536 25.9065 160.969 28.2912 164.383 28.2912C166.59 28.2912 168.438 26.8413 168.646 25.1816C169.325 19.5729 158.121 21.3662 158.121 14.7464C158.121 12.6097 159.818 9.95801 164.006 9.95801C166.024 9.97709 168.212 11.2362 169.759 12.4571Z" fill="white"/>
<path d="M195.449 23.4646C194.034 26.4216 191.544 28.8444 186.942 28.8444C181.811 28.8444 177.36 24.6283 177.36 19.4202C177.36 14.2122 182.019 9.99609 187.168 9.99609C189.979 9.99609 191.676 10.7401 193.883 12.209L193.11 15.2042H192.921C191.016 12.1518 187.923 9.88163 184.509 10.6256C180.057 11.5986 178.435 16.9211 179.85 21.576C181.264 26.2117 184.999 28.6345 189.582 27.9287C191.921 27.5853 193.921 26.04 195.26 23.4074L195.449 23.4646Z" fill="white"/>
<path d="M208.709 25.4868L208.143 28.6727H197.278C197.278 28.6727 197.278 28.5392 197.278 28.4819C197.693 28.253 197.882 27.8524 197.882 26.9367V11.9992C197.882 11.0454 197.693 10.6829 197.278 10.454C197.278 10.3968 197.278 10.2441 197.278 10.2441H200.504C200.504 10.2441 200.504 10.3968 200.504 10.454C200.108 10.6829 199.938 11.0645 199.938 11.9992V28.4819H202.314C205.2 28.4819 207.332 26.9748 208.558 25.3724L208.709 25.4868Z" fill="white"/>
<path d="M225.081 10.2441C225.081 10.2441 225.081 10.3968 225.081 10.454C224.251 10.8928 223.987 12.2663 223.987 13.411V22.4917C223.987 26.1545 221.403 28.8444 217.744 28.8444C213.858 28.8444 210.614 26.6505 210.614 21.8622V11.9992C210.614 11.0454 210.425 10.6829 210.01 10.454C210.01 10.3968 210.01 10.2441 210.01 10.2441H213.236C213.236 10.2441 213.236 10.3968 213.236 10.454C212.84 10.6829 212.67 11.0645 212.67 11.9992V21.8431C212.67 26.1927 214.877 28.8253 218.649 28.501C221.856 28.2339 223.798 25.4296 223.798 22.4726V13.6971C223.798 12.2472 223.119 10.6448 221.837 10.454C221.837 10.3968 221.837 10.2441 221.837 10.2441H225.081Z" fill="white"/>
<path d="M242 23.7317C242 27.4518 237.681 28.6727 234.323 28.6727H227.156C227.156 28.6727 227.156 28.5392 227.156 28.4819C227.552 28.253 227.722 27.8524 227.722 26.9367V11.9992C227.722 11.0835 227.533 10.6829 227.156 10.454C227.156 10.3968 227.156 10.2441 227.156 10.2441H233.192C236.549 10.2441 240.868 10.9309 240.868 14.651C240.868 17.4744 238.322 18.5236 235.606 18.867C238.699 19.1341 242 20.5077 242 23.7317ZM229.796 18.7716H233.21C237.473 18.7716 238.831 16.9593 238.831 14.6319C238.831 12.2854 237.473 10.454 233.21 10.454H229.796V18.7716ZM239.963 23.7317C239.963 21.4234 238.586 19.0006 234.304 19.0006H229.778V28.501H234.304C238.586 28.4819 239.963 26.0591 239.963 23.7317Z" fill="white"/>
<path d="M69.5447 38.459L71.2988 42.9421H70.9216L70.3369 41.4732H68.3752L67.8094 42.9421H67.4321L69.1863 38.459H69.5447ZM68.5261 41.1298H70.2237L69.3749 38.9359L68.5261 41.1298Z" fill="white"/>
<path d="M73.4678 38.459H73.845V42.5987H76.2405V42.9421H73.4678V38.459Z" fill="white"/>
<path d="M78.542 38.459H78.9192V42.5987H81.3147V42.9421H78.542V38.459Z" fill="white"/>
<path d="M86.3128 38.459H89.9155V38.8024H88.2933V42.9421H87.9161V38.8024H86.2939V38.459H86.3128Z" fill="white"/>
<path d="M95.6875 38.459V42.9421H95.3102V40.8055H92.4998V42.9421H92.1226V38.459H92.4998V40.4621H95.3102V38.459H95.6875Z" fill="white"/>
<path d="M99.969 38.459L101.723 42.9421H101.346L100.761 41.4732H98.7995L98.2337 42.9421H97.8564L99.6106 38.459H99.969ZM98.9316 41.1298H100.629L99.7804 38.9359L98.9316 41.1298Z" fill="white"/>
<path d="M103.195 38.459H106.797V38.8024H105.175V42.9421H104.798V38.8024H103.176V38.459H103.195Z" fill="white"/>
<path d="M115.625 38.459V42.9421H115.247V40.8055H112.437V42.9421H112.06V38.459H112.437V40.4621H115.247V38.459H115.625Z" fill="white"/>
<path d="M119.868 42.9995C118.737 42.9995 117.907 42.0647 117.907 40.6912C117.907 39.3176 118.737 38.3828 119.868 38.3828C121 38.3828 121.83 39.3176 121.83 40.6912C121.83 42.0647 121 42.9995 119.868 42.9995ZM119.868 38.7453C118.925 38.7453 118.284 39.5465 118.284 40.7102C118.284 41.8549 118.925 42.6752 119.868 42.6752C120.811 42.6752 121.453 41.8739 121.453 40.7102C121.453 39.5465 120.811 38.7453 119.868 38.7453Z" fill="white"/>
<path d="M127.414 42.9421H127.168L124.471 39.0504V42.9421H124.113V38.459H124.471L127.074 42.1981V38.459H127.433V42.9421H127.414Z" fill="white"/>
<path d="M131.676 42.9995C130.544 42.9995 129.714 42.0647 129.714 40.6912C129.714 39.3176 130.544 38.3828 131.676 38.3828C132.808 38.3828 133.638 39.3176 133.638 40.6912C133.638 42.0647 132.808 42.9995 131.676 42.9995ZM131.676 38.7453C130.733 38.7453 130.092 39.5465 130.092 40.7102C130.092 41.8549 130.733 42.6752 131.676 42.6752C132.619 42.6752 133.26 41.8739 133.26 40.7102C133.26 39.5465 132.619 38.7453 131.676 38.7453Z" fill="white"/>
<path d="M136.279 40.9581V42.9421H135.901V38.459H137.467C138.335 38.459 138.863 38.8978 138.863 39.7181C138.863 40.443 138.429 40.8627 137.731 40.9581L139.07 42.9421H138.636L137.316 40.9581H136.279ZM136.279 40.6338H137.467C138.146 40.6338 138.504 40.2904 138.504 39.7181C138.504 39.1267 138.127 38.8024 137.467 38.8024H136.279V40.6338Z" fill="white"/>
<path d="M141.334 41.8358C141.522 42.3699 141.975 42.6561 142.597 42.6561C143.239 42.6561 143.71 42.3318 143.71 41.7595C143.71 41.3589 143.503 41.0918 142.937 40.9201L142.088 40.6721C141.466 40.5004 141.07 40.2142 141.07 39.5847C141.07 38.8216 141.711 38.3828 142.465 38.3828C143.333 38.3828 143.842 38.8407 144.031 39.5084H143.654C143.484 39.0314 143.107 38.7262 142.465 38.7262C141.881 38.7262 141.428 39.0314 141.428 39.5847C141.428 40.0616 141.73 40.2333 142.277 40.3859L143.012 40.5958C143.748 40.8056 144.05 41.1681 144.05 41.7595C144.05 42.5416 143.408 42.9995 142.578 42.9995C141.767 42.9995 141.107 42.5798 140.938 41.8358H141.334Z" fill="white"/>
<path d="M151.048 38.3828C151.915 38.3828 152.5 38.8979 152.689 39.661H152.33C152.142 39.0887 151.708 38.7262 151.048 38.7262C150.124 38.7262 149.482 39.4702 149.482 40.6912C149.482 41.893 150.142 42.6561 151.048 42.6561C151.689 42.6561 152.142 42.2936 152.33 41.7213H152.689C152.5 42.5035 151.897 42.9995 151.048 42.9995C149.954 42.9995 149.105 42.1029 149.105 40.6912C149.105 39.2794 149.954 38.3828 151.048 38.3828Z" fill="white"/>
<path d="M154.99 38.459H155.367V42.5987H157.762V42.9421H154.99V38.459Z" fill="white"/>
<path d="M159.762 41.1679V38.459H160.139V41.1298C160.139 42.179 160.705 42.675 161.459 42.675C162.214 42.675 162.799 42.179 162.799 41.1298V38.459H163.176V41.1679C163.176 42.408 162.421 42.9994 161.478 42.9994C160.535 42.9994 159.762 42.408 159.762 41.1679Z" fill="white"/>
<path d="M168.589 41.7021C168.589 42.4843 168.042 42.9421 167.137 42.9421H165.647V38.459H167.005C167.91 38.459 168.42 38.8787 168.42 39.6227C168.42 40.2141 168.08 40.5002 167.684 40.6147C168.25 40.7101 168.589 41.1679 168.589 41.7021ZM167.005 40.4621C167.684 40.4621 168.061 40.1759 168.061 39.6227C168.061 39.0695 167.684 38.7833 167.005 38.7833H166.005V40.4621H167.005ZM166.005 42.5987H167.156C167.854 42.5987 168.212 42.2363 168.212 41.7021C168.212 41.1489 167.854 40.8055 167.156 40.8055H166.005V42.5987Z" fill="white"/>
<path d="M21.2198 42.9237C32.9392 42.9237 42.4396 33.3149 42.4396 21.4618C42.4396 9.6088 32.9392 0 21.2198 0C9.50043 0 0 9.6088 0 21.4618C0 33.3149 9.50043 42.9237 21.2198 42.9237Z" fill="#C7F3FE"/>
<path d="M35.0833 20.1265L28.3307 36.6473C28.2175 36.8953 28.1421 37.1624 28.0855 37.3913C27.3687 40.3674 29.7831 42.6757 32.8953 41.7028L49.758 36.3802C51.5498 35.827 52.8513 34.3962 53.3983 32.851C53.8887 31.4583 53.7567 29.9703 52.7947 28.902L42.6847 17.7227C40.6853 15.4716 36.4414 16.807 35.0833 20.1265Z" fill="#89B97C"/>
<path d="M42.5528 21.4617C42.5528 19.9737 42.4019 18.5429 42.119 17.1312C39.931 15.7577 36.4038 17.1312 35.1777 20.1073L28.4251 36.6281C28.312 36.8761 28.2365 37.1432 28.1799 37.3721C27.7838 39.0318 28.3497 40.4817 29.4625 41.2639C37.1583 38.0589 42.5528 30.4089 42.5528 21.4617Z" fill="#385D31"/>
</g>
<defs>
<clipPath id="clip0_18_2245">
<rect width="242" height="43" fill="white"/>
</clipPath>
</defs>
</svg>
