<svg width="17" height="18" viewBox="0 0 17 18" fill="none" xmlns="http://www.w3.org/2000/svg">
<path d="M9.91659 1.9165V4.74984C9.91659 5.12556 10.0658 5.4859 10.3315 5.75157C10.5972 6.01725 10.9575 6.1665 11.3333 6.1665H14.1666M7.08325 6.87484H5.66659M11.3333 9.70817H5.66659M11.3333 12.5415H5.66659M10.6249 1.9165H4.24992C3.8742 1.9165 3.51386 2.06576 3.24818 2.33144C2.98251 2.59711 2.83325 2.95745 2.83325 3.33317V14.6665C2.83325 15.0422 2.98251 15.4026 3.24818 15.6682C3.51386 15.9339 3.8742 16.0832 4.24992 16.0832H12.7499C13.1256 16.0832 13.486 15.9339 13.7517 15.6682C14.0173 15.4026 14.1666 15.0422 14.1666 14.6665V5.45817L10.6249 1.9165Z" stroke="#455560" stroke-width="1.2" stroke-linecap="round" stroke-linejoin="round"/>
</svg>
