<svg width="18" height="18" viewBox="0 0 18 18" fill="none" xmlns="http://www.w3.org/2000/svg">
<g clip-path="url(#clip0_109_1149)">
<path d="M16.8929 2.31787H1.10714C0.771317 2.31787 0.5 2.58919 0.5 2.92501V15.0679C0.5 15.4037 0.771317 15.675 1.10714 15.675H16.8929C17.2287 15.675 17.5 15.4037 17.5 15.0679V2.92501C17.5 2.58919 17.2287 2.31787 16.8929 2.31787ZM16.1339 4.4201V14.3089H1.86607V4.4201L1.34241 4.01218L2.08806 3.05403L2.90011 3.68584H15.1018L15.9138 3.05403L16.6595 4.01218L16.1339 4.4201ZM15.1018 3.68394L9 8.42725L2.89821 3.68394L2.08616 3.05213L1.34051 4.01028L1.86417 4.41821L8.34542 9.45749C8.53182 9.6023 8.76112 9.6809 8.99715 9.6809C9.23318 9.6809 9.46249 9.6023 9.64888 9.45749L16.1339 4.4201L16.6576 4.01218L15.9119 3.05403L15.1018 3.68394Z" fill="#455560"/>
</g>
<defs>
<clipPath id="clip0_109_1149">
<rect width="17" height="17" fill="white" transform="translate(0.5 0.5)"/>
</clipPath>
</defs>
</svg>
