<svg width="15" height="15" viewBox="0 0 15 15" fill="none" xmlns="http://www.w3.org/2000/svg">
<path d="M12.5 6.75195H11.4375V3.25195C11.4375 2.14727 10.5422 1.25195 9.4375 1.25195H5.5625C4.45781 1.25195 3.5625 2.14727 3.5625 3.25195V6.75195H2.5C2.22344 6.75195 2 6.97539 2 7.25195V13.252C2 13.5285 2.22344 13.752 2.5 13.752H12.5C12.7766 13.752 13 13.5285 13 13.252V7.25195C13 6.97539 12.7766 6.75195 12.5 6.75195ZM4.6875 3.25195C4.6875 2.76914 5.07969 2.37695 5.5625 2.37695H9.4375C9.92031 2.37695 10.3125 2.76914 10.3125 3.25195V6.75195H4.6875V3.25195ZM11.875 12.627H3.125V7.87695H11.875V12.627ZM7.0625 10.4551V11.2832C7.0625 11.352 7.11875 11.4082 7.1875 11.4082H7.8125C7.88125 11.4082 7.9375 11.352 7.9375 11.2832V10.4551C8.06648 10.3625 8.16275 10.2313 8.21245 10.0805C8.26216 9.92974 8.26273 9.76706 8.21409 9.61591C8.16545 9.46477 8.07011 9.33295 7.94179 9.23945C7.81346 9.14594 7.65878 9.09556 7.5 9.09556C7.34122 9.09556 7.18654 9.14594 7.05821 9.23945C6.92989 9.33295 6.83455 9.46477 6.78591 9.61591C6.73727 9.76706 6.73784 9.92974 6.78755 10.0805C6.83725 10.2313 6.93352 10.3625 7.0625 10.4551Z" fill="#89B97C"/>
</svg>
