<svg width="17" height="18" viewBox="0 0 17 18" fill="none" xmlns="http://www.w3.org/2000/svg">
<path d="M8.5 1.5625C4.39277 1.5625 1.0625 4.89277 1.0625 9C1.0625 13.1072 4.39277 16.4375 8.5 16.4375C12.6072 16.4375 15.9375 13.1072 15.9375 9C15.9375 4.89277 12.6072 1.5625 8.5 1.5625ZM8.5 15.1758C5.09004 15.1758 2.32422 12.41 2.32422 9C2.32422 5.59004 5.09004 2.82422 8.5 2.82422C11.91 2.82422 14.6758 5.59004 14.6758 9C14.6758 12.41 11.91 15.1758 8.5 15.1758Z" fill="#455560"/>
<path d="M7.70287 6.07812C7.70287 6.28947 7.78682 6.49216 7.93626 6.6416C8.08571 6.79104 8.2884 6.875 8.49974 6.875C8.71108 6.875 8.91377 6.79104 9.06322 6.6416C9.21266 6.49216 9.29662 6.28947 9.29662 6.07812C9.29662 5.86678 9.21266 5.66409 9.06322 5.51465C8.91377 5.36521 8.71108 5.28125 8.49974 5.28125C8.2884 5.28125 8.08571 5.36521 7.93626 5.51465C7.78682 5.66409 7.70287 5.86678 7.70287 6.07812ZM8.89818 7.9375H8.1013C8.02826 7.9375 7.96849 7.99727 7.96849 8.07031V12.5859C7.96849 12.659 8.02826 12.7188 8.1013 12.7188H8.89818C8.97122 12.7188 9.03099 12.659 9.03099 12.5859V8.07031C9.03099 7.99727 8.97122 7.9375 8.89818 7.9375Z" fill="#455560"/>
</svg>
