<svg width="15" height="16" viewBox="0 0 15 16" fill="none" xmlns="http://www.w3.org/2000/svg">
<path d="M7.49958 0.711914C3.47536 0.711914 0.213867 3.97341 0.213867 7.99763V14.828C0.213867 15.0803 0.416881 15.2833 0.669224 15.2833H4.1603C4.83005 15.2833 5.37458 14.7388 5.37458 14.0691V10.1226C5.37458 9.45288 4.83005 8.90834 4.1603 8.90834H1.57994V7.99763C1.57994 4.72854 4.2305 2.07799 7.49958 2.07799C10.7687 2.07799 13.4192 4.72854 13.4192 7.99763V8.90834H10.8389C10.1691 8.90834 9.62458 9.45288 9.62458 10.1226V14.0691C9.62458 14.7388 10.1691 15.2833 10.8389 15.2833H14.3299C14.5823 15.2833 14.7853 15.0803 14.7853 14.828V7.99763C14.7853 3.97341 11.5238 0.711914 7.49958 0.711914ZM4.00851 10.2744V13.9173H1.57994V10.2744H4.00851ZM13.4192 13.9173H10.9907V10.2744H13.4192V13.9173Z" fill="#385D31"/>
</svg>
