<svg width="17" height="18" viewBox="0 0 17 18" fill="none" xmlns="http://www.w3.org/2000/svg">
<path d="M1.75 16.5H15.25C15.4489 16.5 15.6397 16.421 15.7803 16.2803C15.921 16.1397 16 15.9489 16 15.75V2.25C16 2.05109 15.921 1.86032 15.7803 1.71967C15.6397 1.57902 15.4489 1.5 15.25 1.5H1.75C1.55109 1.5 1.36032 1.57902 1.21967 1.71967C1.07902 1.86032 1 2.05109 1 2.25V15.75C1 15.9489 1.07902 16.1397 1.21967 16.2803C1.36032 16.421 1.55109 16.5 1.75 16.5ZM2.5 7.5H4V15H2.5V7.5ZM14.5 15H5.5V7.5H14.5V15ZM2.5 3H14.5V6H2.5V3Z" fill="#455560"/>
</svg>
