<svg width="17" height="18" viewBox="0 0 17 18" fill="none" xmlns="http://www.w3.org/2000/svg">
<path d="M2.3375 5.45818L8.5 8.99985M8.5 8.99985L14.6625 5.45818M8.5 8.99985V16.0832M14.875 6.16652C14.8747 5.91809 14.8092 5.67409 14.6848 5.45901C14.5605 5.24392 14.3818 5.06531 14.1667 4.9411L9.20833 2.10777C8.99297 1.98343 8.74868 1.91797 8.5 1.91797C8.25132 1.91797 8.00703 1.98343 7.79167 2.10777L2.83333 4.9411C2.61819 5.06531 2.43949 5.24392 2.31516 5.45901C2.19083 5.67409 2.12525 5.91809 2.125 6.16652V11.8332C2.12525 12.0816 2.19083 12.3256 2.31516 12.5407C2.43949 12.7558 2.61819 12.9344 2.83333 13.0586L7.79167 15.8919C8.00703 16.0163 8.25132 16.0817 8.5 16.0817C8.74868 16.0817 8.99297 16.0163 9.20833 15.8919L14.1667 13.0586C14.3818 12.9344 14.5605 12.7558 14.6848 12.5407C14.8092 12.3256 14.8747 12.0816 14.875 11.8332V6.16652Z" stroke="#455560" stroke-width="1.2" stroke-linecap="round" stroke-linejoin="round"/>
</svg>
