<svg width="17" height="18" viewBox="0 0 17 18" fill="none" xmlns="http://www.w3.org/2000/svg">
<path d="M8.5 0.5C3.80603 0.5 0 4.30603 0 9C0 13.694 3.80603 17.5 8.5 17.5C13.194 17.5 17 13.694 17 9C17 4.30603 13.194 0.5 8.5 0.5ZM8.5 16.058C4.6029 16.058 1.44196 12.8971 1.44196 9C1.44196 5.1029 4.6029 1.94196 8.5 1.94196C12.3971 1.94196 15.558 5.1029 15.558 9C15.558 12.8971 12.3971 16.058 8.5 16.058ZM12.2643 4.89989C12.19 4.87085 12.1107 4.85675 12.0309 4.85837C11.9512 4.86 11.8725 4.87733 11.7994 4.90937L6.6577 7.1596L4.40937 12.3013C4.34107 12.4569 4.34107 12.6334 4.40937 12.789C4.47388 12.9369 4.59342 13.0527 4.7452 13.1115C4.8173 13.14 4.89129 13.1532 4.96719 13.1532C5.05067 13.1532 5.13225 13.1362 5.21004 13.102L10.3518 10.8518L12.6001 5.71004C12.6329 5.63501 12.6502 5.55412 12.651 5.47222C12.6518 5.39033 12.636 5.30912 12.6047 5.23347C12.5733 5.15782 12.527 5.08928 12.4685 5.03195C12.41 4.97463 12.3406 4.92971 12.2643 4.89989ZM9.72946 9.425L10.2266 9.9221L9.4221 10.7266L8.925 10.2295L5.99554 11.5121L7.27623 8.58259L6.79241 8.09688L7.59688 7.29241L8.08069 7.77623L11.0121 6.49554L9.72946 9.425ZM7.59688 7.29241L6.79241 8.09688L7.27623 8.58259L8.925 10.2295L9.4221 10.7266L10.2266 9.9221L9.72946 9.425L8.08259 7.77623L7.59688 7.29241Z" fill="#455560"/>
</svg>
