<svg width="228" height="11" viewBox="0 0 228 11" fill="none" xmlns="http://www.w3.org/2000/svg">
<path d="M5.78516 0.380859L5.80957 0.444336L9.72656 10.4541L9.78027 10.5908H8.72363L8.69824 10.5273L7.41797 7.31055H3.1748L1.93555 10.5264L1.91113 10.5908H0.853516L0.907227 10.4541L4.82324 0.444336L4.84863 0.380859H5.78516ZM3.58887 6.34375H7.08691L5.33691 1.82129L3.58887 6.34375Z" fill="white" stroke="white" stroke-width="0.2"/>
<path d="M15.4194 0.380859V9.62402H20.7681V10.5908H14.3774V0.380859H15.4194Z" fill="white" stroke="white" stroke-width="0.2"/>
<path d="M26.748 0.380859V9.62402H32.0967V10.5908H25.7061V0.380859H26.748Z" fill="white" stroke="white" stroke-width="0.2"/>
<path d="M51.3018 0.380859V1.34766H47.6797V10.5908H46.6367V1.34766H43.0156V0.380859H51.3018Z" fill="white" stroke="white" stroke-width="0.2"/>
<path d="M57.0708 0.380859V4.85254H63.146V0.380859H64.188V10.5908H63.146V5.81934H57.0708V10.5908H56.0288V0.380859H57.0708Z" fill="white" stroke="white" stroke-width="0.2"/>
<path d="M73.7168 0.380859L73.7412 0.444336L77.6582 10.4541L77.7119 10.5908H76.6553L76.6299 10.5273L75.3496 7.31055H71.1064L69.8672 10.5264L69.8428 10.5908H68.7852L68.8389 10.4541L72.7549 0.444336L72.7803 0.380859H73.7168ZM71.4785 6.34375H74.9766L73.2266 1.82129L71.4785 6.34375Z" fill="white" stroke="white" stroke-width="0.2"/>
<path d="M88.9946 0.380859V1.34766H85.3726V10.5908H84.3296V1.34766H80.7085V0.380859H88.9946Z" fill="white" stroke="white" stroke-width="0.2"/>
<path d="M101.587 0.380859V4.85254H107.662V0.380859H108.704V10.5908H107.662V5.81934H101.587V10.5908H100.545V0.380859H101.587Z" fill="white" stroke="white" stroke-width="0.2"/>
<path d="M118.08 0.210938C120.676 0.210938 122.561 2.35734 122.561 5.46484C122.56 8.57222 120.676 10.7188 118.08 10.7188C115.485 10.7187 113.601 8.57218 113.601 5.46484C113.601 2.35737 115.484 0.210991 118.08 0.210938ZM118.08 1.21973C117.058 1.21975 116.202 1.65264 115.6 2.40137C114.996 3.15191 114.643 4.22545 114.643 5.50684C114.643 6.76667 114.995 7.84044 115.6 8.59668C116.203 9.3513 117.059 9.79489 118.08 9.79492C119.102 9.79492 119.958 9.36124 120.561 8.6123C121.164 7.86169 121.518 6.78836 121.518 5.50684C121.518 4.22545 121.164 3.15191 120.561 2.40137C119.958 1.65268 119.102 1.21973 118.08 1.21973Z" fill="white" stroke="white" stroke-width="0.2"/>
<path d="M128.408 0.380859L128.438 0.422852L134.067 8.50977V0.380859H135.068V10.5908H134.326L134.296 10.5479L128.456 2.12012V10.5908H127.456V0.380859H128.408Z" fill="white" stroke="white" stroke-width="0.2"/>
<path d="M144.444 0.210938C147.04 0.210938 148.924 2.35734 148.924 5.46484C148.924 8.57222 147.039 10.7188 144.444 10.7188C141.848 10.7187 139.964 8.57219 139.964 5.46484C139.964 2.35736 141.848 0.210976 144.444 0.210938ZM144.444 1.21973C143.422 1.21975 142.566 1.65264 141.963 2.40137C141.359 3.15191 141.006 4.22545 141.006 5.50684C141.006 6.76667 141.359 7.84044 141.963 8.59668C142.566 9.3513 143.423 9.7949 144.444 9.79492C145.466 9.79492 146.322 9.36124 146.924 8.6123C147.528 7.86169 147.881 6.78835 147.881 5.50684C147.881 4.22545 147.528 3.15191 146.924 2.40137C146.322 1.65267 145.466 1.21973 144.444 1.21973Z" fill="white" stroke="white" stroke-width="0.2"/>
<path d="M157.373 0.380859C158.357 0.380859 159.164 0.62908 159.725 1.12402C160.287 1.62065 160.59 2.35373 160.59 3.29199C160.59 4.12187 160.341 4.78661 159.884 5.27148C159.457 5.7235 158.857 6.00829 158.132 6.13281L161.036 10.4346L161.142 10.5908H159.931L159.901 10.5459L156.982 6.16016H154.82V10.5908H153.778V0.380859H157.373ZM154.82 5.23633H157.373C158.115 5.23633 158.668 5.04842 159.033 4.71875C159.397 4.39047 159.59 3.90926 159.59 3.29199C159.59 2.65401 159.387 2.17275 159.019 1.84961C158.648 1.52468 158.095 1.34766 157.373 1.34766H154.82V5.23633Z" fill="white" stroke="white" stroke-width="0.2"/>
<path d="M168.534 0.210938C169.52 0.210938 170.311 0.471355 170.911 0.928711C171.51 1.38593 171.91 2.03435 172.125 2.79688L172.162 2.92383H171.117L171.093 2.85742C170.909 2.34109 170.616 1.92237 170.199 1.63281C169.782 1.34318 169.234 1.17773 168.534 1.17773C167.897 1.17777 167.342 1.34369 166.948 1.65137C166.556 1.95697 166.318 2.40691 166.318 2.99414C166.318 3.50132 166.476 3.83401 166.772 4.08398C167.075 4.34015 167.53 4.51649 168.139 4.68652H168.14L169.783 5.15527C170.613 5.39224 171.213 5.71925 171.604 6.16504C171.997 6.61331 172.171 7.17142 172.171 7.84961C172.171 8.75276 171.8 9.47385 171.187 9.9668C170.576 10.458 169.731 10.7187 168.787 10.7188C166.942 10.7188 165.417 9.76067 165.025 8.04297L164.998 7.91992H166.078L166.101 7.9873C166.305 8.5642 166.65 9.00388 167.109 9.2998C167.569 9.59609 168.149 9.75194 168.829 9.75195C169.529 9.75195 170.127 9.57476 170.547 9.25098C170.965 8.92935 171.213 8.45777 171.213 7.84961C171.213 7.42127 171.103 7.07371 170.849 6.78711C170.593 6.49779 170.181 6.2602 169.558 6.07129V6.07031L167.665 5.51758C166.964 5.32418 166.376 5.06355 165.963 4.66309C165.547 4.25875 165.317 3.72058 165.317 2.99414C165.317 2.11141 165.689 1.41199 166.281 0.935547C166.87 0.460815 167.673 0.210972 168.534 0.210938Z" fill="white" stroke="white" stroke-width="0.2"/>
<path d="M187.696 0.210938C188.685 0.210946 189.519 0.504474 190.159 1.02051C190.8 1.53642 191.242 2.27027 191.457 3.14062L191.488 3.26465H190.487L190.465 3.19531C190.259 2.57246 189.923 2.06931 189.463 1.72168C189.003 1.3743 188.414 1.17774 187.696 1.17773C186.694 1.17773 185.848 1.57955 185.252 2.31152C184.654 3.04539 184.301 4.11846 184.301 5.46484C184.301 6.78879 184.664 7.86181 185.268 8.60156C185.87 9.33992 186.716 9.75195 187.696 9.75195C189.082 9.75194 190.056 8.97272 190.465 7.7334L190.487 7.66504H191.487L191.457 7.78809C191.025 9.5791 189.638 10.7187 187.696 10.7188C186.446 10.7188 185.334 10.2054 184.536 9.28906C183.739 8.37344 183.259 7.06065 183.259 5.46484C183.259 3.8689 183.739 2.55532 184.536 1.63965C185.334 0.723439 186.446 0.210938 187.696 0.210938Z" fill="white" stroke="white" stroke-width="0.2"/>
<path d="M197.44 0.380859V9.62402H202.789V10.5908H196.398V0.380859H197.44Z" fill="white" stroke="white" stroke-width="0.2"/>
<path d="M208.096 0.380859V6.44336C208.096 7.59714 208.406 8.43322 208.911 8.97949C209.415 9.52495 210.124 9.79388 210.943 9.79395C211.763 9.79395 212.483 9.52464 212.998 8.97852C213.513 8.43199 213.834 7.59616 213.834 6.44336V0.380859H214.876V6.5293C214.876 7.93401 214.448 8.98384 213.741 9.68262C213.034 10.3809 212.059 10.7178 210.985 10.7178C209.912 10.7177 208.927 10.3813 208.21 9.68359C207.492 8.98506 207.054 7.93492 207.054 6.5293V0.380859H208.096Z" fill="white" stroke="white" stroke-width="0.2"/>
<path d="M223.326 0.380859C224.35 0.380859 225.166 0.617424 225.727 1.0791C226.291 1.54319 226.584 2.22399 226.584 3.0791C226.584 3.75954 226.389 4.27339 226.072 4.65039C225.832 4.93538 225.526 5.13673 225.194 5.27539C226.307 5.60894 226.963 6.59365 226.963 7.72168C226.963 8.61971 226.648 9.34137 226.065 9.83691C225.484 10.3306 224.647 10.5908 223.621 10.5908H220.194V0.380859H223.326ZM221.194 9.62402H223.663C224.425 9.62402 224.989 9.42608 225.36 9.0957C225.73 8.76648 225.921 8.2947 225.921 7.72168C225.921 7.12658 225.729 6.65632 225.36 6.33301C224.989 6.00808 224.427 5.81934 223.663 5.81934H221.194V9.62402ZM221.194 4.85254H223.326C224.072 4.85254 224.637 4.69536 225.012 4.40039C225.384 4.10865 225.584 3.67166 225.584 3.0791C225.584 2.4863 225.384 2.04863 225.012 1.75684C224.637 1.46187 224.072 1.30469 223.326 1.30469H221.194V4.85254Z" fill="white" stroke="white" stroke-width="0.2"/>
</svg>
