<svg width="242" height="44" viewBox="0 0 242 44" fill="none" xmlns="http://www.w3.org/2000/svg">
<g clip-path="url(#clip0_18_3392)">
<path d="M80.673 12.4992V27.4367C80.673 28.3524 80.8616 28.753 81.2388 28.9819C81.2388 29.0392 81.2388 29.1727 81.2388 29.1727H78.0134C78.0134 29.1727 78.0134 29.0392 78.0134 28.9819C78.4284 28.753 78.617 28.3524 78.617 27.4367V18.3559H69.5632V27.4367C69.5632 28.3524 69.7519 28.753 70.1291 28.9819C70.1291 29.0392 70.1291 29.1727 70.1291 29.1727H66.9037C66.9037 29.1727 66.9037 29.0392 66.9037 28.9819C67.3187 28.753 67.5073 28.3524 67.5073 27.4367V12.4992C67.5073 11.5835 67.3187 11.1829 66.9037 10.954C66.9037 10.8968 66.9037 10.7441 66.9037 10.7441H70.1291C70.1291 10.7441 70.1291 10.8968 70.1291 10.954C69.733 11.1829 69.5632 11.5835 69.5632 12.4992V18.1652H78.617V12.4992C78.617 11.5835 78.4284 11.1829 78.0134 10.954C78.0134 10.8968 78.0134 10.7441 78.0134 10.7441H81.2388C81.2388 10.7441 81.2388 10.8968 81.2388 10.954C80.8616 11.1829 80.673 11.5835 80.673 12.4992Z" fill="#1C1C1C"/>
<path d="M101.987 19.9017C101.987 25.0907 97.6865 29.3258 92.5372 29.3258C87.3878 29.3258 83.0873 25.0907 83.0873 19.9017C83.0873 14.6936 87.3878 10.4775 92.5372 10.4775C97.6865 10.4775 101.987 14.6936 101.987 19.9017ZM99.4784 17.746C98.0637 13.1102 94.2159 9.77168 89.8776 11.1071C85.5205 12.4425 84.1813 17.4026 85.5771 22.0383C86.9917 26.6932 90.8396 30.0507 95.1778 28.6963C99.535 27.3609 100.893 22.4008 99.4784 17.746Z" fill="#1C1C1C"/>
<path d="M119.812 10.7441C119.812 10.7441 119.812 10.8968 119.812 10.954C118.944 11.3928 118.171 12.7663 118.171 13.911V29.1918H117.775L105.382 13.1479V26.025C105.382 27.1505 106.156 28.5622 107.042 29.001C107.042 29.0582 107.042 29.1918 107.042 29.1918H103.534C103.534 29.1918 103.534 29.0582 103.534 29.001C104.42 28.5622 105.194 27.1505 105.194 26.025V12.8999L103.534 10.7441H106.156L117.944 25.8533V13.911C117.944 12.7854 117.171 11.4118 116.303 10.954C116.303 10.8968 116.303 10.7441 116.303 10.7441H119.812Z" fill="#1C1C1C"/>
<path d="M140.013 19.9017C140.013 25.0907 135.712 29.3258 130.563 29.3258C125.414 29.3258 121.113 25.0907 121.113 19.9017C121.113 14.6936 125.414 10.4775 130.563 10.4775C135.731 10.4775 140.013 14.6936 140.013 19.9017ZM137.523 17.746C136.108 13.1102 132.261 9.77168 127.922 11.1071C123.565 12.4425 122.226 17.4026 123.622 22.0383C125.036 26.6932 128.884 30.0507 133.223 28.6963C137.58 27.3609 138.919 22.4008 137.523 17.746Z" fill="#1C1C1C"/>
<path d="M155.744 28.9819V29.1727H151.726V28.9819C152.405 28.2952 151.858 27.3413 150.84 25.529L148.067 20.6261C147.671 20.6452 147.294 20.6834 146.898 20.6834H144.483V27.4558C144.483 28.3715 144.672 28.7721 145.049 29.001C145.049 29.0582 145.049 29.1918 145.049 29.1918H141.843C141.843 29.1918 141.843 29.0582 141.843 29.001C142.239 28.7721 142.408 28.3715 142.408 27.4558V12.4992C142.408 11.5454 142.22 11.1829 141.843 10.954C141.843 10.8968 141.843 10.7441 141.843 10.7441H146.898C150.934 10.7441 154.574 12.2703 154.574 15.7233C154.574 18.2033 152.613 19.6913 150.01 20.3018L152.349 24.4606C153.895 27.1696 154.725 28.0662 155.744 28.9819ZM152.518 15.7233C152.518 13.663 151.839 10.954 146.898 10.954H144.483V20.4544H146.898C151.821 20.4544 152.518 17.7455 152.518 15.7233Z" fill="#1C1C1C"/>
<path d="M169.758 12.9571L168.985 15.7042H168.796C167.306 12.1559 165.401 10.8205 163.345 10.8205C160.761 10.8205 159.29 12.2894 159.12 13.8728C158.63 19.1381 169.796 17.4021 169.796 23.9837C169.796 27.1124 167.005 29.3254 163.308 29.3254C160.214 29.3254 158.29 28.2761 156.253 26.7118L157.027 23.7167H157.215C158.535 26.4065 160.969 28.7912 164.383 28.7912C166.59 28.7912 168.438 27.3413 168.646 25.6816C169.325 20.0729 158.121 21.8662 158.121 15.2464C158.121 13.1097 159.818 10.458 164.005 10.458C166.024 10.4771 168.212 11.7362 169.758 12.9571Z" fill="#1C1C1C"/>
<path d="M195.449 23.9646C194.034 26.9216 191.544 29.3444 186.942 29.3444C181.811 29.3444 177.36 25.1283 177.36 19.9202C177.36 14.7122 182.019 10.4961 187.168 10.4961C189.979 10.4961 191.676 11.2401 193.883 12.709L193.11 15.7042H192.921C191.016 12.6518 187.923 10.3816 184.509 11.1256C180.057 12.0986 178.435 17.4211 179.85 22.076C181.264 26.7117 184.999 29.1345 189.582 28.4287C191.921 28.0853 193.921 26.54 195.26 23.9074L195.449 23.9646Z" fill="#1C1C1C"/>
<path d="M208.708 25.9868L208.143 29.1727H197.278C197.278 29.1727 197.278 29.0392 197.278 28.9819C197.693 28.753 197.882 28.3524 197.882 27.4367V12.4992C197.882 11.5454 197.693 11.1829 197.278 10.954C197.278 10.8968 197.278 10.7441 197.278 10.7441H200.503C200.503 10.7441 200.503 10.8968 200.503 10.954C200.107 11.1829 199.938 11.5645 199.938 12.4992V28.9819H202.314C205.2 28.9819 207.332 27.4748 208.558 25.8724L208.708 25.9868Z" fill="#1C1C1C"/>
<path d="M225.081 10.7441C225.081 10.7441 225.081 10.8968 225.081 10.954C224.251 11.3928 223.987 12.7663 223.987 13.911V22.9917C223.987 26.6545 221.403 29.3444 217.743 29.3444C213.858 29.3444 210.614 27.1505 210.614 22.3622V12.4992C210.614 11.5454 210.425 11.1829 210.01 10.954C210.01 10.8968 210.01 10.7441 210.01 10.7441H213.235C213.235 10.7441 213.235 10.8968 213.235 10.954C212.839 11.1829 212.67 11.5645 212.67 12.4992V22.3431C212.67 26.6927 214.876 29.3253 218.649 29.001C221.855 28.7339 223.798 25.9296 223.798 22.9726V14.1971C223.798 12.7472 223.119 11.1448 221.837 10.954C221.837 10.8968 221.837 10.7441 221.837 10.7441H225.081Z" fill="#1C1C1C"/>
<path d="M242 24.2317C242 27.9518 237.681 29.1727 234.323 29.1727H227.156C227.156 29.1727 227.156 29.0392 227.156 28.9819C227.552 28.753 227.722 28.3524 227.722 27.4367V12.4992C227.722 11.5835 227.533 11.1829 227.156 10.954C227.156 10.8968 227.156 10.7441 227.156 10.7441H233.191C236.549 10.7441 240.868 11.4309 240.868 15.151C240.868 17.9744 238.322 19.0236 235.606 19.367C238.699 19.6341 242 21.0077 242 24.2317ZM229.796 19.2716H233.21C237.473 19.2716 238.831 17.4593 238.831 15.1319C238.831 12.7854 237.473 10.954 233.21 10.954H229.796V19.2716ZM239.963 24.2317C239.963 21.9234 238.586 19.5006 234.304 19.5006H229.777V29.001H234.304C238.586 28.9819 239.963 26.5591 239.963 24.2317Z" fill="#1C1C1C"/>
<path d="M69.5443 38.959L71.2985 43.4421H70.9212L70.3365 41.9732H68.3749L67.809 43.4421H67.4318L69.1859 38.959H69.5443ZM68.5258 41.6298H70.2233L69.3746 39.4359L68.5258 41.6298Z" fill="#1C1C1C"/>
<path d="M73.4677 38.959H73.8449V43.0987H76.2404V43.4421H73.4677V38.959Z" fill="#1C1C1C"/>
<path d="M78.5415 38.959H78.9187V43.0987H81.3142V43.4421H78.5415V38.959Z" fill="#1C1C1C"/>
<path d="M86.3127 38.959H89.9153V39.3024H88.2932V43.4421H87.916V39.3024H86.2938V38.959H86.3127Z" fill="#1C1C1C"/>
<path d="M95.6871 38.959V43.4421H95.3099V41.3055H92.4994V43.4421H92.1222V38.959H92.4994V40.9621H95.3099V38.959H95.6871Z" fill="#1C1C1C"/>
<path d="M99.9688 38.959L101.723 43.4421H101.346L100.761 41.9732H98.7993L98.2334 43.4421H97.8562L99.6104 38.959H99.9688ZM98.9313 41.6298H100.629L99.7801 39.4359L98.9313 41.6298Z" fill="#1C1C1C"/>
<path d="M103.194 38.959H106.797V39.3024H105.175V43.4421H104.797V39.3024H103.175V38.959H103.194Z" fill="#1C1C1C"/>
<path d="M115.624 38.959V43.4421H115.247V41.3055H112.437V43.4421H112.059V38.959H112.437V40.9621H115.247V38.959H115.624Z" fill="#1C1C1C"/>
<path d="M119.868 43.4995C118.737 43.4995 117.907 42.5647 117.907 41.1912C117.907 39.8176 118.737 38.8828 119.868 38.8828C121 38.8828 121.83 39.8176 121.83 41.1912C121.83 42.5647 121 43.4995 119.868 43.4995ZM119.868 39.2453C118.925 39.2453 118.284 40.0465 118.284 41.2102C118.284 42.3549 118.925 43.1752 119.868 43.1752C120.811 43.1752 121.453 42.3739 121.453 41.2102C121.453 40.0465 120.811 39.2453 119.868 39.2453Z" fill="#1C1C1C"/>
<path d="M127.413 43.4421H127.168L124.471 39.5504V43.4421H124.112V38.959H124.471L127.074 42.6981V38.959H127.432V43.4421H127.413Z" fill="#1C1C1C"/>
<path d="M131.676 43.4995C130.544 43.4995 129.714 42.5647 129.714 41.1912C129.714 39.8176 130.544 38.8828 131.676 38.8828C132.808 38.8828 133.638 39.8176 133.638 41.1912C133.638 42.5647 132.808 43.4995 131.676 43.4995ZM131.676 39.2453C130.733 39.2453 130.091 40.0465 130.091 41.2102C130.091 42.3549 130.733 43.1752 131.676 43.1752C132.619 43.1752 133.26 42.3739 133.26 41.2102C133.26 40.0465 132.619 39.2453 131.676 39.2453Z" fill="#1C1C1C"/>
<path d="M136.278 41.4581V43.4421H135.901V38.959H137.467C138.334 38.959 138.862 39.3978 138.862 40.2181C138.862 40.943 138.429 41.3627 137.731 41.4581L139.07 43.4421H138.636L137.316 41.4581H136.278ZM136.278 41.1338H137.467C138.146 41.1338 138.504 40.7904 138.504 40.2181C138.504 39.6267 138.127 39.3024 137.467 39.3024H136.278V41.1338Z" fill="#1C1C1C"/>
<path d="M141.333 42.3358C141.522 42.8699 141.975 43.1561 142.597 43.1561C143.238 43.1561 143.71 42.8318 143.71 42.2595C143.71 41.8589 143.502 41.5918 142.937 41.4201L142.088 41.1721C141.465 41.0004 141.069 40.7142 141.069 40.0847C141.069 39.3216 141.71 38.8828 142.465 38.8828C143.333 38.8828 143.842 39.3407 144.031 40.0084H143.653C143.484 39.5314 143.106 39.2262 142.465 39.2262C141.88 39.2262 141.428 39.5314 141.428 40.0847C141.428 40.5616 141.729 40.7333 142.276 40.8859L143.012 41.0958C143.748 41.3056 144.049 41.6681 144.049 42.2595C144.049 43.0416 143.408 43.4995 142.578 43.4995C141.767 43.4995 141.107 43.0798 140.937 42.3358H141.333Z" fill="#1C1C1C"/>
<path d="M151.047 38.8828C151.915 38.8828 152.5 39.3979 152.688 40.161H152.33C152.141 39.5887 151.707 39.2262 151.047 39.2262C150.123 39.2262 149.482 39.9702 149.482 41.1912C149.482 42.393 150.142 43.1561 151.047 43.1561C151.688 43.1561 152.141 42.7936 152.33 42.2213H152.688C152.5 43.0035 151.896 43.4995 151.047 43.4995C149.953 43.4995 149.104 42.6029 149.104 41.1912C149.104 39.7794 149.953 38.8828 151.047 38.8828Z" fill="#1C1C1C"/>
<path d="M154.989 38.959H155.367V43.0987H157.762V43.4421H154.989V38.959Z" fill="#1C1C1C"/>
<path d="M159.761 41.6679V38.959H160.139V41.6298C160.139 42.679 160.705 43.175 161.459 43.175C162.214 43.175 162.798 42.679 162.798 41.6298V38.959H163.175V41.6679C163.175 42.908 162.421 43.4994 161.478 43.4994C160.535 43.4994 159.761 42.908 159.761 41.6679Z" fill="#1C1C1C"/>
<path d="M168.589 42.2021C168.589 42.9843 168.042 43.4421 167.136 43.4421H165.646V38.959H167.004C167.91 38.959 168.419 39.3787 168.419 40.1227C168.419 40.7141 168.08 41.0002 167.683 41.1147C168.249 41.2101 168.589 41.6679 168.589 42.2021ZM167.004 40.9621C167.683 40.9621 168.061 40.6759 168.061 40.1227C168.061 39.5695 167.683 39.2833 167.004 39.2833H166.005V40.9621H167.004ZM166.005 43.0987H167.155C167.853 43.0987 168.212 42.7363 168.212 42.2021C168.212 41.6489 167.853 41.3055 167.155 41.3055H166.005V43.0987Z" fill="#1C1C1C"/>
<path d="M21.2198 43.4237C32.9392 43.4237 42.4396 33.8149 42.4396 21.9618C42.4396 10.1088 32.9392 0.5 21.2198 0.5C9.50043 0.5 0 10.1088 0 21.9618C0 33.8149 9.50043 43.4237 21.2198 43.4237Z" fill="#C7F3FE"/>
<path d="M35.0834 20.6265L28.3308 37.1473C28.2176 37.3953 28.1422 37.6624 28.0856 37.8913C27.3688 40.8674 29.7832 43.1757 32.8954 42.2028L49.7581 36.8802C51.55 36.327 52.8515 34.8962 53.3985 33.351C53.8889 31.9583 53.7568 30.4703 52.7949 29.402L42.6848 18.2227C40.6854 15.9716 36.4415 17.307 35.0834 20.6265Z" fill="#89B97C"/>
<path d="M42.5528 21.9617C42.5528 20.4737 42.4019 19.0429 42.119 17.6312C39.931 16.2577 36.4038 17.6312 35.1777 20.6073L28.4251 37.1281C28.312 37.3761 28.2365 37.6432 28.1799 37.8721C27.7838 39.5318 28.3497 40.9817 29.4625 41.7639C37.1583 38.5589 42.5528 30.9089 42.5528 21.9617Z" fill="#385D31"/>
</g>
<defs>
<clipPath id="clip0_18_3392">
<rect width="242" height="43" fill="white" transform="translate(0 0.5)"/>
</clipPath>
</defs>
</svg>
