<svg width="15" height="15" viewBox="0 0 15 15" fill="none" xmlns="http://www.w3.org/2000/svg">
<g clip-path="url(#clip0_113_113)">
<path d="M14 1.99707H1C0.723437 1.99707 0.5 2.22051 0.5 2.49707V12.4971C0.5 12.7736 0.723437 12.9971 1 12.9971H14C14.2766 12.9971 14.5 12.7736 14.5 12.4971V2.49707C14.5 2.22051 14.2766 1.99707 14 1.99707ZM13.375 3.72832V11.8721H1.625V3.72832L1.19375 3.39238L1.80781 2.60332L2.47656 3.12363H12.525L13.1938 2.60332L13.8078 3.39238L13.375 3.72832ZM12.525 3.12207L7.5 7.02832L2.475 3.12207L1.80625 2.60176L1.19219 3.39082L1.62344 3.72676L6.96094 7.87676C7.11444 7.99601 7.30328 8.06074 7.49766 8.06074C7.69203 8.06074 7.88088 7.99601 8.03438 7.87676L13.375 3.72832L13.8062 3.39238L13.1922 2.60332L12.525 3.12207Z" fill="#89B97C"/>
</g>
<defs>
<clipPath id="clip0_113_113">
<rect width="14" height="14" fill="white" transform="translate(0.5 0.5)"/>
</clipPath>
</defs>
</svg>
